<?xml version="1.0" encoding="UTF-8" standalone="no"?>
<svg
   xmlns:dc="http://purl.org/dc/elements/1.1/"
   xmlns:cc="http://creativecommons.org/ns#"
   xmlns:rdf="http://www.w3.org/1999/02/22-rdf-syntax-ns#"
   xmlns:svg="http://www.w3.org/2000/svg"
   xmlns="http://www.w3.org/2000/svg"
   viewBox="0 0 660.35999 402.21332"
   height="402.21332"
   width="660.35999"
   xml:space="preserve"
   id="svg2"
   version="1.1"><metadata
     id="metadata8"><rdf:RDF><cc:Work
         rdf:about=""><dc:format>image/svg+xml</dc:format><dc:type
           rdf:resource="http://purl.org/dc/dcmitype/StillImage" /></cc:Work></rdf:RDF></metadata><defs
     id="defs6" /><g
     transform="matrix(1.3333333,0,0,-1.3333333,0,402.21333)"
     id="g10"><g
       transform="scale(0.1)"
       id="g12"><path
         id="path14"
         style="fill:#231f20;fill-opacity:1;fill-rule:nonzero;stroke:none"
         d="M 4950.15,2.5 H 2.49609 V 3014.12 H 4950.15 V 2.5" /><path
         id="path16"
         style="fill:none;stroke:#231f20;stroke-width:5;stroke-linecap:butt;stroke-linejoin:miter;stroke-miterlimit:10;stroke-dasharray:none;stroke-opacity:1"
         d="M 4950.15,2.5 H 2.49609 V 3014.12 H 4950.15 Z" /><path
         id="path18"
         style="fill:#ffffff;fill-opacity:1;fill-rule:nonzero;stroke:none"
         d="m 1884.88,1530.61 h -113.24 v 79.99 h -23.37 v -183.07 h 23.37 v 81.52 h 113.24 v -81.52 h 23.37 v 183.07 h -23.37 v -79.99" /><path
         id="path20"
         style="fill:#ffffff;fill-opacity:1;fill-rule:nonzero;stroke:none"
         d="m 2148.46,1610.6 -62.85,-91.78 -62.78,91.78 h -28.03 l 79.05,-116.41 v -66.66 h 23.37 v 66.89 l 79.08,116.18 h -27.84" /><path
         id="path22"
         style="fill:#ffffff;fill-opacity:1;fill-rule:nonzero;stroke:none"
         d="m 2768.3,1519.05 c 0,-39.63 -32.39,-71.87 -72.19,-71.87 -39.79,0 -72.18,32.24 -72.18,71.87 0,39.64 32.39,71.89 72.18,71.89 39.8,0 72.19,-32.25 72.19,-71.89 z m -72.19,94.07 c -53.04,0 -96.18,-42.19 -96.18,-94.07 0,-51.87 43.14,-94.07 96.18,-94.07 53.04,0 96.19,42.2 96.19,94.07 0,51.88 -43.15,94.07 -96.19,94.07" /><path
         id="path24"
         style="fill:#ffffff;fill-opacity:1;fill-rule:nonzero;stroke:none"
         d="m 3021.32,1551.8 c 0,-27.04 -13.59,-37.1 -50.14,-37.1 l -55.74,0.04 v 74.24 h 55.74 c 36.55,0 50.14,-10.07 50.14,-37.18 z m 24,1.12 c 0,40.43 -22.41,57.68 -74.94,57.68 h -78.3 v -183.07 h 23.36 v 67.69 h 51.05 c 4.99,0.02 9.26,0.18 13.29,0.49 l 47.09,-68.18 h 27.32 l -49.78,71.52 c 28.25,6.57 40.91,23.32 40.91,53.87" /><path
         id="path26"
         style="fill:#ffffff;fill-opacity:1;fill-rule:nonzero;stroke:none"
         d="m 3295.92,1610.6 h -31.67 l -99.76,-101.93 v 101.93 h -23.36 v -183.07 h 23.36 v 47.36 l 44.3,44.23 60.44,-91.59 h 29.39 l -73.99,109.62 71.29,73.45" /><path
         id="path28"
         style="fill:#ffffff;fill-opacity:1;fill-rule:nonzero;stroke:none"
         d="m 3451.8,1532.48 -6.84,1.82 c -38.04,9.98 -44.18,16.6 -44.18,28.58 0,27.33 31.73,29.5 41.45,29.52 0.08,0 0.15,0 0.23,0 20.69,0 44.29,-6.43 61.66,-16.81 l 2.2,-1.32 10.38,18.49 -2.01,1.27 c -18.83,11.94 -45.22,19.06 -70.61,19.06 -0.03,0 -0.07,0 -0.1,0 -42.5,-0.07 -67.87,-19.58 -67.87,-52.19 0,-27.62 20.14,-37.7 62.44,-48.68 l 9.94,-2.57 c 34.2,-8.77 48.36,-12.4 48.36,-34.57 0,-6.79 -2.36,-12.59 -7.04,-17.25 -7.7,-7.68 -21.95,-12.13 -38.43,-12 -25.24,0.06 -51.65,7.38 -70.64,19.59 l -2.14,1.38 -11.07,-17.94 1.98,-1.35 c 20.79,-14.11 50.71,-22.53 80.04,-22.53 43.45,0 71.54,20.47 71.54,52.15 0,37.05 -27.57,44.33 -69.29,55.35" /><path
         id="path30"
         style="fill:#ffffff;fill-opacity:1;fill-rule:nonzero;stroke:none"
         d="m 1633.73,1523.11 27.9,84.95 h -53.47 z" /><path
         id="path32"
         style="fill:#ffffff;fill-opacity:1;fill-rule:nonzero;stroke:none"
         d="m 1545.21,1608.1 h -46.62 l -30.93,-103.21 -31.78,103.17 h -53.53 l 58.44,-177.91 h 49.14 l 32.06,102.37 32.06,-102.37 h 44.71 l -53.55,177.95" /><path
         id="path34"
         style="fill:#ffffff;fill-opacity:1;fill-rule:nonzero;stroke:none"
         d="m 2493.35,1523.11 27.9,84.95 h -53.47 z" /><path
         id="path36"
         style="fill:#ffffff;fill-opacity:1;fill-rule:nonzero;stroke:none"
         d="m 2404.83,1608.1 h -46.62 l -30.93,-103.21 -31.79,103.17 h -53.52 l 58.44,-177.91 h 49.14 l 32.06,102.37 32.06,-102.37 h 44.7 l -53.54,177.95" /></g></g></svg>